<svg width="144" height="48" viewBox="0 0 144 48" fill="none" xmlns="http://www.w3.org/2000/svg">
<path d="M35.019 0.143585C29.2428 0.224939 24.4983 0.291663 24.4738 0.299798C24.4494 0.307934 26.7314 2.60695 29.5406 5.4161L34.6406 10.5154L43.3821 10.5407L52.1155 10.5651L52.6508 10.7545C53.3129 10.9752 53.9201 11.335 54.4316 11.8097C54.9432 12.2844 55.3474 12.8631 55.617 13.5068C56.7706 16.0524 55.7903 19.2658 53.5164 20.4105C52.5361 20.8986 52.2806 20.9377 49.5202 20.9458C47.3619 20.954 46.9414 20.9784 46.5631 21.1028C45.7886 21.3583 45.4998 21.8114 45.7308 22.4208C45.8292 22.6844 48.2601 25.164 51.5395 28.3595C54.4398 31.1769 54.3324 31.111 55.4364 30.749C55.7821 30.6334 56.7379 30.2056 57.5516 29.8102C62.6101 27.3305 65.5761 23.8453 66.4908 19.2895C66.7188 17.8625 66.777 16.4135 66.6641 14.9728C66.2222 11.3011 64.7804 7.82131 62.4955 4.9134C60.5927 2.66396 57.239 1.03283 53.1202 0.357596C50.5161 -0.0792745 51.0351 -0.0711896 35.019 0.143585Z" fill="white"/>
<path d="M9.48097 0.448765C2.94742 0.530119 0.575135 0.588742 0.426255 0.662774C0.301033 0.731733 0.202311 0.840301 0.145608 0.971526C0.0889051 1.10276 0.0774829 1.24918 0.113084 1.38763C0.145626 1.50234 2.1152 3.53776 4.63636 6.0508L9.11084 10.5252H29.7894L24.6812 5.41709L19.5689 0.308838L18.9506 0.316981C18.6154 0.325117 14.3484 0.382868 9.48097 0.448765Z" fill="white"/>
<path d="M36.947 24.2668C35.3158 25.8491 33.8165 27.3314 33.6017 27.5624C33.1485 28.04 33.0583 28.3207 33.2145 28.6583C33.2803 28.7819 37.5392 33.0742 42.6808 38.1824C50.9789 46.4293 52.0813 47.5006 52.4847 47.6731C52.9127 47.8626 53.0697 47.879 55.4509 47.9449C58.9108 48.0523 64.3818 47.9944 64.7599 47.8456C64.9157 47.8092 65.0607 47.7372 65.1837 47.6353C65.3068 47.5333 65.4049 47.4042 65.4693 47.2581C65.5342 47.1119 65.5641 46.9528 65.5567 46.7931C65.5494 46.6335 65.5048 46.4777 65.4275 46.3381C65.1962 45.8687 41.1228 21.7293 40.6868 21.5317C40.036 21.2437 40.1678 21.1444 36.947 24.2668Z" fill="white"/>
<path d="M23.1308 23.4343C23.0495 23.4595 21.4997 25.0329 19.6872 26.9325C16.878 29.8906 16.3915 30.4307 16.4159 30.6154C16.4321 30.7716 18.5254 32.9055 24.7783 39.1096C31.4493 45.7335 33.1984 47.4223 33.5197 47.5704C33.8988 47.7518 34.0713 47.76 37.3344 47.8503C39.2129 47.8999 41.9318 47.9242 43.3815 47.908C45.6879 47.8836 46.0507 47.8674 46.2818 47.7453C46.4695 47.6598 46.6272 47.5198 46.7344 47.3435C46.8416 47.1673 46.8934 46.9628 46.883 46.7568V46.35L35.6618 35.0964C29.4789 28.9095 24.2844 23.7353 24.1095 23.6117C23.9741 23.5028 23.8136 23.4295 23.6427 23.3985C23.4718 23.3675 23.2958 23.3798 23.1308 23.4343Z" fill="white"/>
<path d="M13.3844 33.1636C13.2364 33.2376 10.2288 36.1541 6.69475 39.6311C-0.308223 46.5186 -0.0690372 46.2468 0.0294014 47.0791C0.0296271 47.1885 0.0532543 47.2966 0.0987192 47.3961C0.144184 47.4956 0.210412 47.5842 0.292967 47.6559L0.506929 47.8455H13.0639L13.369 47.6559C13.5317 47.5575 15.2637 45.893 17.2081 43.9649C20.289 40.9165 20.7673 40.4057 20.8495 40.1095C21.039 39.3846 21.0553 39.401 17.7353 36.1794C16.0707 34.5645 14.5966 33.1887 14.4477 33.1228C14.2788 33.0495 14.0955 33.0151 13.9115 33.0221C13.7274 33.0291 13.5473 33.0775 13.3844 33.1636Z" fill="white"/>
<path d="M88.1619 25.3679L84.4905 20.1049C84.3364 20.122 84.1056 20.1306 83.7975 20.1306H79.7412V25.3679H76.4033V7.39665H83.7975C85.355 7.39665 86.7071 7.65336 87.8538 8.16683C89.0174 8.68029 89.9079 9.41627 90.5235 10.3747C91.1398 11.3332 91.4479 12.4714 91.4479 13.7892C91.4479 15.1414 91.1144 16.3052 90.4468 17.2808C89.7961 18.2564 88.8549 18.9838 87.623 19.4631L91.756 25.3679H88.1619ZM88.0846 13.7892C88.0846 12.6425 87.7082 11.7611 86.9554 11.1449C86.202 10.5288 85.0982 10.2207 83.6434 10.2207H79.7412V17.3835H83.6434C85.0982 17.3835 86.202 17.0754 86.9554 16.4593C87.7082 15.826 88.0846 14.936 88.0846 13.7892ZM106.838 21.2088H97.8522L96.0809 25.3679H92.6403L100.727 7.39665H104.013L112.127 25.3679H108.635L106.838 21.2088ZM105.734 18.5902L102.345 10.7342L98.982 18.5902H105.734ZM119.983 25.6246C118.597 25.6246 117.253 25.4278 115.953 25.0342C114.669 24.6405 113.65 24.1185 112.897 23.4681L114.053 20.8751C114.788 21.457 115.687 21.9363 116.748 22.3128C117.827 22.6722 118.905 22.8519 119.983 22.8519C121.318 22.8519 122.311 22.638 122.961 22.2101C123.629 21.7822 123.962 21.2174 123.962 20.5157C123.962 20.0022 123.774 19.5829 123.398 19.2576C123.038 18.9153 122.576 18.65 122.011 18.4618C121.447 18.2735 120.676 18.0596 119.701 17.8199C118.331 17.4948 117.219 17.1696 116.363 16.8444C115.524 16.5192 114.797 16.0143 114.181 15.3296C113.582 14.6279 113.282 13.6866 113.282 12.5056C113.282 11.5129 113.547 10.6144 114.078 9.80993C114.626 8.98835 115.439 8.33798 116.517 7.85877C117.613 7.3795 118.947 7.13989 120.522 7.13989C121.618 7.13989 122.696 7.27679 123.757 7.55066C124.818 7.82452 125.734 8.21818 126.504 8.73165L125.452 11.3246C124.664 10.8625 123.843 10.5117 122.987 10.272C122.131 10.0324 121.301 9.91258 120.496 9.91258C119.179 9.91258 118.195 10.1351 117.544 10.5801C116.911 11.0251 116.594 11.6156 116.594 12.3515C116.594 12.865 116.774 13.2843 117.133 13.6096C117.51 13.9348 117.981 14.1915 118.546 14.3797C119.11 14.568 119.88 14.782 120.856 15.0216C122.191 15.3296 123.286 15.6549 124.142 15.9972C124.998 16.3224 125.725 16.8273 126.325 17.5119C126.94 18.1965 127.248 19.1207 127.248 20.2846C127.248 21.2773 126.975 22.1759 126.427 22.9803C125.896 23.7847 125.084 24.4265 123.988 24.9058C122.892 25.385 121.558 25.6246 119.983 25.6246ZM133.953 10.2207H127.997V7.39665H143.247V10.2207H137.29V25.3679H133.953V10.2207Z" fill="white"/>
<path d="M87.5672 43.1894L87.5503 34.7723L83.375 41.7865H82.616L78.4401 34.8218V43.1894H76.8555V31.6364H78.2093L83.0285 39.7566L87.7817 31.6364H89.1349L89.1513 43.1894H87.5672ZM97.8338 43.3215C96.6679 43.3215 95.6171 43.0684 94.6815 42.5623C93.7465 42.0451 93.0095 41.3354 92.47 40.4332C91.9418 39.531 91.6777 38.5242 91.6777 37.413C91.6777 36.3017 91.9418 35.2949 92.47 34.3927C93.0095 33.4904 93.7465 32.7862 94.6815 32.2801C95.6171 31.763 96.6679 31.5044 97.8338 31.5044C98.9895 31.5044 100.035 31.763 100.97 32.2801C101.905 32.7862 102.637 33.4904 103.165 34.3927C103.693 35.2839 103.957 36.2907 103.957 37.413C103.957 38.5352 103.693 39.5475 103.165 40.4498C102.637 41.341 101.905 42.0451 100.97 42.5623C100.035 43.0684 98.9895 43.3215 97.8338 43.3215ZM97.8338 41.8526C98.6814 41.8526 99.4404 41.66 100.111 41.2749C100.794 40.8899 101.327 40.3617 101.712 39.6905C102.108 39.0083 102.306 38.2492 102.306 37.413C102.306 36.5767 102.108 35.823 101.712 35.1519C101.327 34.4697 100.794 33.9361 100.111 33.5509C99.4404 33.1658 98.6814 32.9733 97.8338 32.9733C96.9867 32.9733 96.2164 33.1658 95.5235 33.5509C94.8412 33.9361 94.3023 34.4697 93.9062 35.1519C93.5207 35.823 93.3283 36.5767 93.3283 37.413C93.3283 38.2492 93.5207 39.0083 93.9062 39.6905C94.3023 40.3617 94.8412 40.8899 95.5235 41.2749C96.2164 41.66 96.9867 41.8526 97.8338 41.8526ZM114.253 37.1984C114.925 37.3854 115.453 37.7266 115.838 38.2217C116.222 38.7058 116.415 39.3219 116.415 40.0701C116.415 41.0714 116.036 41.8416 115.277 42.3807C114.528 42.9199 113.434 43.1894 111.992 43.1894H106.48V31.6364H111.662C112.982 31.6364 114 31.9005 114.715 32.4287C115.441 32.9568 115.804 33.6885 115.804 34.6237C115.804 35.2289 115.662 35.7515 115.375 36.1916C115.101 36.6317 114.726 36.9673 114.253 37.1984ZM108.13 32.9733V36.6703H111.513C112.361 36.6703 113.01 36.5162 113.461 36.2082C113.923 35.889 114.154 35.4269 114.154 34.8218C114.154 34.2166 113.923 33.76 113.461 33.4519C113.01 33.1328 112.361 32.9733 111.513 32.9733H108.13ZM111.926 41.8526C112.861 41.8526 113.566 41.6986 114.039 41.3905C114.511 41.0824 114.748 40.5983 114.748 39.9381C114.748 38.6508 113.808 38.0071 111.926 38.0071H108.13V41.8526H111.926ZM118.971 31.6364H120.621V43.1894H118.971V31.6364ZM124.08 31.6364H125.731V41.7535H131.985V43.1894H124.08V31.6364ZM142.263 41.7535V43.1894H133.879V31.6364H142.032V33.0723H135.53V36.6207H141.322V38.0236H135.53V41.7535H142.263Z" fill="white"/>
</svg>
